<svg width="59" height="59" viewBox="0 0 59 59" fill="none" xmlns="http://www.w3.org/2000/svg">
<path d="M16.1313 0.841996C16.0393 0.853496 15.7115 0.893746 15.4125 0.928246C12.411 1.26175 9.39226 2.54975 6.98876 4.51625C3.8895 7.05775 1.79075 10.6917 1.1525 14.6017C0.922504 16.0392 0.916754 16.6027 0.934004 30.075C0.962754 44.1855 0.939754 43.2482 1.27325 44.8985C1.72175 47.1468 2.73375 49.418 4.108 51.2925C5.6375 53.3855 7.62701 55.076 9.92701 56.249C11.7268 57.1633 13.4403 57.6865 15.5563 57.974C16.4015 58.0833 42.7078 58.0833 43.5588 57.974C46.635 57.5658 49.165 56.5595 51.5973 54.7713C52.5173 54.0985 54.1848 52.4368 54.869 51.5225C56.5653 49.2455 57.5485 46.8995 58.0373 43.9613L58.158 43.2137L58.181 29.9025C58.1925 20.4955 58.181 16.3727 58.135 15.8495C57.8015 11.9567 56.1283 8.39175 53.3395 5.60875C50.9705 3.2455 48.1358 1.739 44.8525 1.10075C43.3403 0.801746 43.6853 0.807496 29.5 0.818996C22.2435 0.818996 16.229 0.836246 16.1313 0.841996ZM43.645 5.76975C45.9048 6.224 47.6125 7.02325 49.2053 8.363C51.0395 9.904 52.431 12.0832 52.983 14.2912C53.3568 15.7747 53.328 14.504 53.3453 29.0687C53.3683 41.0345 53.3568 42.3627 53.2763 43.0412C52.8508 46.3878 51.0223 49.3605 48.222 51.2408C46.8133 52.1895 45.462 52.7358 43.6738 53.0865L43.0413 53.213L30.0175 53.236C20.9555 53.2475 16.7925 53.236 16.3383 53.19C11.215 52.7013 6.983 48.8833 5.98825 43.8463C5.74675 42.6387 5.74675 42.3685 5.764 28.925L5.787 16.0162L5.9135 15.355C6.41375 12.756 7.47751 10.732 9.27151 8.961C10.226 8.018 11.1518 7.37975 12.4513 6.75875C13.6933 6.16075 14.918 5.81575 16.275 5.67775C16.3843 5.66625 22.4793 5.6605 29.8163 5.66625C42.1615 5.672 43.1908 5.67775 43.645 5.76975Z" fill="white"/>
<path d="M28.8821 42.7429V15.3143H30.6393V42.7429H28.8821ZM34.3786 23.8214C34.2643 22.8071 33.7929 22.0214 32.9643 21.4643C32.1357 20.9 31.0929 20.6179 29.8357 20.6179C28.9357 20.6179 28.1571 20.7607 27.5 21.0464C26.8429 21.325 26.3321 21.7107 25.9679 22.2036C25.6107 22.6893 25.4321 23.2429 25.4321 23.8643C25.4321 24.3857 25.5536 24.8357 25.7964 25.2143C26.0464 25.5929 26.3714 25.9107 26.7714 26.1679C27.1786 26.4179 27.6143 26.6286 28.0786 26.8C28.5429 26.9643 28.9893 27.1 29.4179 27.2071L31.5607 27.7643C32.2607 27.9357 32.9786 28.1679 33.7143 28.4607C34.45 28.7536 35.1321 29.1393 35.7607 29.6179C36.3893 30.0964 36.8964 30.6893 37.2821 31.3964C37.675 32.1036 37.8714 32.95 37.8714 33.9357C37.8714 35.1786 37.55 36.2821 36.9071 37.2464C36.2714 38.2107 35.3464 38.9714 34.1321 39.5286C32.925 40.0857 31.4643 40.3643 29.75 40.3643C28.1071 40.3643 26.6857 40.1036 25.4857 39.5821C24.2857 39.0607 23.3464 38.3214 22.6679 37.3643C21.9893 36.4 21.6143 35.2571 21.5429 33.9357H24.8643C24.9286 34.7286 25.1857 35.3893 25.6357 35.9179C26.0929 36.4393 26.675 36.8286 27.3821 37.0857C28.0964 37.3357 28.8786 37.4607 29.7286 37.4607C30.6643 37.4607 31.4964 37.3143 32.225 37.0214C32.9607 36.7214 33.5393 36.3071 33.9607 35.7786C34.3821 35.2429 34.5929 34.6179 34.5929 33.9036C34.5929 33.2536 34.4071 32.7214 34.0357 32.3071C33.6714 31.8929 33.175 31.55 32.5464 31.2786C31.925 31.0071 31.2214 30.7679 30.4357 30.5607L27.8429 29.8536C26.0857 29.375 24.6929 28.6714 23.6643 27.7429C22.6429 26.8143 22.1321 25.5857 22.1321 24.0571C22.1321 22.7929 22.475 21.6893 23.1607 20.7464C23.8464 19.8036 24.775 19.0714 25.9464 18.55C27.1179 18.0214 28.4393 17.7571 29.9107 17.7571C31.3964 17.7571 32.7071 18.0179 33.8429 18.5393C34.9857 19.0607 35.8857 19.7786 36.5429 20.6929C37.2 21.6 37.5429 22.6429 37.5714 23.8214H34.3786Z" fill="#F59E0B"/>
</svg>
