<svg width="616" height="91" viewBox="0 0 616 91" fill="none" xmlns="http://www.w3.org/2000/svg">
<path d="M136.406 70.2727C136.406 72.0739 136.094 73.6477 135.469 74.9943C134.844 76.3352 133.974 77.3778 132.861 78.1222C131.753 78.8665 130.474 79.2386 129.026 79.2386C127.571 79.2386 126.287 78.8665 125.173 78.1222C124.065 77.3722 123.199 76.3267 122.574 74.9858C121.949 73.6392 121.636 72.0682 121.636 70.2727C121.636 68.4716 121.949 66.9006 122.574 65.5597C123.205 64.2187 124.074 63.1761 125.182 62.4318C126.29 61.6818 127.571 61.3068 129.026 61.3068C130.474 61.3068 131.753 61.679 132.861 62.4233C133.974 63.1676 134.844 64.2131 135.469 65.5597C136.094 66.9006 136.406 68.4716 136.406 70.2727ZM135.366 70.2727C135.366 68.6534 135.094 67.25 134.548 66.0625C134.009 64.875 133.261 63.9574 132.307 63.3097C131.352 62.6562 130.259 62.3295 129.026 62.3295C127.793 62.3295 126.699 62.6534 125.744 63.3011C124.79 63.9432 124.04 64.8608 123.494 66.054C122.955 67.2415 122.685 68.6477 122.685 70.2727C122.685 71.8807 122.952 73.2812 123.486 74.4744C124.026 75.6619 124.773 76.5824 125.727 77.2358C126.682 77.8892 127.781 78.2159 129.026 78.2159C130.259 78.2159 131.352 77.892 132.307 77.2443C133.261 76.5909 134.009 75.6705 134.548 74.483C135.094 73.2955 135.366 71.892 135.366 70.2727ZM141.243 70.5114V79H140.203V65.9091H141.217V67.9801H141.32C141.626 67.304 142.118 66.7614 142.794 66.3523C143.47 65.9432 144.274 65.7386 145.206 65.7386C146.087 65.7386 146.859 65.9261 147.524 66.3011C148.195 66.6761 148.717 67.2102 149.092 67.9034C149.473 68.5909 149.663 69.4119 149.663 70.3665V79H148.624V70.4091C148.624 69.2955 148.291 68.4006 147.626 67.7244C146.967 67.0426 146.095 66.7017 145.01 66.7017C144.283 66.7017 143.635 66.8608 143.067 67.179C142.499 67.4972 142.053 67.9432 141.729 68.517C141.405 69.0852 141.243 69.75 141.243 70.5114ZM158.476 79.2727C157.425 79.2727 156.507 78.983 155.723 78.4034C154.939 77.8239 154.331 77.0256 153.899 76.0085C153.473 74.9858 153.26 73.8125 153.26 72.4886C153.26 71.1761 153.476 70.0114 153.908 68.9943C154.345 67.9716 154.956 67.1705 155.74 66.5909C156.524 66.0057 157.439 65.7131 158.484 65.7131C159.234 65.7131 159.885 65.858 160.436 66.1477C160.993 66.4318 161.459 66.8097 161.834 67.2812C162.214 67.7528 162.504 68.2699 162.703 68.8324H162.805V61.5455H163.837V79H162.831V76.1449H162.703C162.493 76.7074 162.2 77.2273 161.825 77.7045C161.45 78.1761 160.984 78.5568 160.428 78.8466C159.871 79.1307 159.22 79.2727 158.476 79.2727ZM158.57 78.3097C159.456 78.3097 160.214 78.0568 160.845 77.5511C161.482 77.0398 161.967 76.3466 162.303 75.4716C162.643 74.5909 162.814 73.5937 162.814 72.4801C162.814 71.3665 162.643 70.375 162.303 69.5057C161.967 68.6307 161.482 67.9432 160.845 67.4432C160.214 66.9375 159.456 66.6847 158.57 66.6847C157.672 66.6847 156.902 66.9403 156.26 67.4517C155.624 67.9574 155.135 68.6477 154.794 69.5227C154.459 70.3977 154.291 71.3835 154.291 72.4801C154.291 73.5767 154.459 74.5653 154.794 75.446C155.135 76.3267 155.624 77.0256 156.26 77.5426C156.902 78.054 157.672 78.3097 158.57 78.3097ZM173.621 79.2727C172.439 79.2727 171.411 78.9801 170.536 78.3949C169.661 77.8097 168.984 77.0085 168.507 75.9915C168.03 74.9744 167.791 73.8153 167.791 72.5142C167.791 71.2074 168.03 70.0426 168.507 69.0199C168.99 67.9972 169.652 67.1903 170.493 66.5994C171.334 66.0085 172.294 65.7131 173.374 65.7131C174.107 65.7131 174.8 65.8608 175.453 66.1562C176.112 66.446 176.692 66.8665 177.192 67.4176C177.697 67.9687 178.092 68.6335 178.376 69.4119C178.666 70.1903 178.811 71.0653 178.811 72.0369V72.6847H168.447V71.7386H177.771C177.771 70.7898 177.578 69.9347 177.192 69.1733C176.805 68.4119 176.28 67.8068 175.615 67.358C174.95 66.9091 174.203 66.6847 173.374 66.6847C172.504 66.6847 171.729 66.929 171.047 67.4176C170.371 67.9006 169.834 68.554 169.436 69.3778C169.044 70.2017 168.839 71.1222 168.822 72.1392V72.5653C168.822 73.6562 169.013 74.6364 169.393 75.5057C169.78 76.3693 170.331 77.054 171.047 77.5597C171.763 78.0597 172.621 78.3097 173.621 78.3097C174.337 78.3097 174.947 78.1903 175.453 77.9517C175.964 77.7074 176.382 77.4119 176.706 77.0653C177.03 76.7187 177.274 76.3835 177.439 76.0597L178.385 76.4432C178.186 76.8807 177.876 77.3182 177.456 77.7557C177.041 78.1875 176.513 78.5483 175.871 78.8381C175.234 79.1278 174.484 79.2727 173.621 79.2727ZM189.192 79V65.9091H190.223V79H189.192ZM189.712 63.5909C189.484 63.5909 189.286 63.5114 189.115 63.3523C188.95 63.1932 188.868 63 188.868 62.7727C188.868 62.5455 188.95 62.3523 189.115 62.1932C189.28 62.0341 189.479 61.9545 189.712 61.9545C189.939 61.9545 190.135 62.0341 190.3 62.1932C190.47 62.3523 190.555 62.5455 190.555 62.7727C190.555 63 190.473 63.1932 190.308 63.3523C190.143 63.5114 189.945 63.5909 189.712 63.5909ZM195.618 70.5114V79H194.578V65.9091H195.592V67.9801H195.695C196.001 67.304 196.493 66.7614 197.169 66.3523C197.845 65.9432 198.649 65.7386 199.581 65.7386C200.462 65.7386 201.234 65.9261 201.899 66.3011C202.57 66.6761 203.092 67.2102 203.467 67.9034C203.848 68.5909 204.038 69.4119 204.038 70.3665V79H202.999V70.4091C202.999 69.2955 202.666 68.4006 202.001 67.7244C201.342 67.0426 200.47 66.7017 199.385 66.7017C198.658 66.7017 198.01 66.8608 197.442 67.179C196.874 67.4972 196.428 67.9432 196.104 68.517C195.78 69.0852 195.618 69.75 195.618 70.5114ZM213.226 79.2727C212.146 79.2727 211.186 78.983 210.345 78.4034C209.504 77.8182 208.842 77.0142 208.359 75.9915C207.876 74.9687 207.635 73.804 207.635 72.4972C207.635 71.1847 207.876 70.0199 208.359 69.0028C208.842 67.9801 209.504 67.1761 210.345 66.5909C211.186 66.0057 212.146 65.7131 213.226 65.7131C214.305 65.7131 215.266 66.0057 216.107 66.5909C216.947 67.1761 217.609 67.9801 218.092 69.0028C218.575 70.0256 218.817 71.1903 218.817 72.4972C218.817 73.804 218.575 74.9687 218.092 75.9915C217.609 77.0142 216.947 77.8182 216.107 78.4034C215.266 78.983 214.305 79.2727 213.226 79.2727ZM213.226 78.3097C214.141 78.3097 214.939 78.0511 215.621 77.5341C216.308 77.017 216.839 76.3182 217.214 75.4375C217.595 74.5568 217.786 73.5767 217.786 72.4972C217.786 71.4176 217.595 70.4403 217.214 69.5653C216.834 68.6847 216.303 67.9858 215.621 67.4688C214.939 66.946 214.141 66.6847 213.226 66.6847C212.311 66.6847 211.513 66.946 210.831 67.4688C210.149 67.9858 209.618 68.6847 209.237 69.5653C208.857 70.4403 208.666 71.4176 208.666 72.4972C208.666 73.5767 208.854 74.5568 209.229 75.4375C209.609 76.3182 210.141 77.017 210.822 77.5341C211.51 78.0511 212.311 78.3097 213.226 78.3097ZM231.501 65.9091L226.771 79H225.594L220.864 65.9091H221.981L226.14 77.6619H226.225L230.384 65.9091H231.501ZM237.82 79.2812C237.065 79.2812 236.371 79.1307 235.741 78.8295C235.116 78.5284 234.613 78.0881 234.232 77.5085C233.857 76.929 233.67 76.2244 233.67 75.3949C233.67 74.8494 233.766 74.3693 233.96 73.9545C234.153 73.5398 234.451 73.1818 234.854 72.8807C235.258 72.5795 235.775 72.3324 236.406 72.1392C237.036 71.9403 237.789 71.7869 238.664 71.679C239.329 71.5994 239.923 71.5227 240.445 71.4489C240.968 71.3693 241.377 71.2472 241.673 71.0824C241.974 70.9176 242.124 70.6676 242.124 70.3324V69.7869C242.124 68.8324 241.823 68.0739 241.221 67.5114C240.619 66.9489 239.789 66.6676 238.732 66.6676C237.795 66.6676 237.005 66.875 236.363 67.2898C235.727 67.6989 235.281 68.2273 235.025 68.875L234.045 68.5085C234.295 67.8835 234.656 67.3636 235.127 66.9489C235.604 66.5341 236.15 66.2244 236.763 66.0199C237.383 65.8153 238.031 65.7131 238.707 65.7131C239.292 65.7131 239.849 65.7955 240.377 65.9602C240.911 66.125 241.386 66.375 241.8 66.7102C242.221 67.0455 242.553 67.4744 242.798 67.9972C243.042 68.5142 243.164 69.1335 243.164 69.8551V79H242.124V76.6392H242.048C241.82 77.1278 241.508 77.5739 241.11 77.9773C240.718 78.375 240.244 78.6932 239.687 78.9318C239.136 79.1648 238.513 79.2812 237.82 79.2812ZM237.923 78.3182C238.741 78.3182 239.465 78.1193 240.096 77.7216C240.732 77.3182 241.229 76.767 241.587 76.0682C241.945 75.3693 242.124 74.5767 242.124 73.6903V71.7642C241.994 71.8778 241.803 71.9801 241.553 72.071C241.309 72.1562 241.031 72.233 240.718 72.3011C240.411 72.3636 240.087 72.4205 239.746 72.4716C239.411 72.517 239.085 72.5597 238.766 72.5994C237.812 72.7131 237.033 72.8892 236.431 73.1278C235.835 73.3608 235.397 73.6676 235.119 74.0483C234.846 74.429 234.71 74.8892 234.71 75.429C234.71 76.321 235.016 77.0256 235.63 77.5426C236.244 78.0597 237.008 78.3182 237.923 78.3182ZM252.433 79.2727C251.319 79.2727 250.339 78.9801 249.492 78.3949C248.646 77.804 247.984 76.9972 247.506 75.9744C247.035 74.9517 246.799 73.7926 246.799 72.4972C246.799 71.2017 247.038 70.0426 247.515 69.0199C247.992 67.9972 248.654 67.1903 249.501 66.5994C250.347 66.0085 251.322 65.7131 252.424 65.7131C253.254 65.7131 254.009 65.8835 254.691 66.2244C255.379 66.5653 255.947 67.0398 256.396 67.6477C256.85 68.2557 257.14 68.9602 257.265 69.7614H256.208C256.038 68.875 255.612 68.142 254.93 67.5625C254.254 66.9773 253.421 66.6847 252.433 66.6847C251.546 66.6847 250.756 66.9347 250.063 67.4347C249.37 67.929 248.825 68.6136 248.427 69.4886C248.029 70.358 247.83 71.3551 247.83 72.4801C247.83 73.5881 248.023 74.5824 248.41 75.4631C248.796 76.3381 249.336 77.0312 250.029 77.5426C250.722 78.054 251.523 78.3097 252.433 78.3097C253.075 78.3097 253.66 78.1818 254.188 77.9261C254.722 77.6705 255.168 77.3068 255.526 76.8352C255.884 76.3636 256.12 75.8125 256.234 75.1818H257.29C257.165 75.9886 256.881 76.6989 256.438 77.3125C255.995 77.9261 255.43 78.4063 254.742 78.7528C254.055 79.0994 253.285 79.2727 252.433 79.2727ZM251.844 78.9318H252.765L252.637 79.6136C253.171 79.6989 253.6 79.9063 253.924 80.2358C254.248 80.571 254.41 81.0256 254.41 81.5994C254.41 82.2472 254.177 82.7443 253.711 83.0909C253.251 83.4375 252.575 83.6193 251.683 83.6364L251.648 82.8267C252.251 82.8153 252.7 82.7131 252.995 82.5199C253.29 82.3324 253.441 82.0341 253.447 81.625C253.441 81.1705 253.285 80.8352 252.978 80.6193C252.671 80.4034 252.202 80.2926 251.572 80.2869L251.844 78.9318ZM265.702 79.2727C264.623 79.2727 263.663 78.983 262.822 78.4034C261.981 77.8182 261.319 77.0142 260.836 75.9915C260.353 74.9687 260.112 73.804 260.112 72.4972C260.112 71.1847 260.353 70.0199 260.836 69.0028C261.319 67.9801 261.981 67.1761 262.822 66.5909C263.663 66.0057 264.623 65.7131 265.702 65.7131C266.782 65.7131 267.742 66.0057 268.583 66.5909C269.424 67.1761 270.086 67.9801 270.569 69.0028C271.052 70.0256 271.293 71.1903 271.293 72.4972C271.293 73.804 271.052 74.9687 270.569 75.9915C270.086 77.0142 269.424 77.8182 268.583 78.4034C267.742 78.983 266.782 79.2727 265.702 79.2727ZM265.702 78.3097C266.617 78.3097 267.415 78.0511 268.097 77.5341C268.785 77.017 269.316 76.3182 269.691 75.4375C270.072 74.5568 270.262 73.5767 270.262 72.4972C270.262 71.4176 270.072 70.4403 269.691 69.5653C269.31 68.6847 268.779 67.9858 268.097 67.4688C267.415 66.946 266.617 66.6847 265.702 66.6847C264.788 66.6847 263.989 66.946 263.308 67.4688C262.626 67.9858 262.094 68.6847 261.714 69.5653C261.333 70.4403 261.143 71.4176 261.143 72.4972C261.143 73.5767 261.33 74.5568 261.705 75.4375C262.086 76.3182 262.617 77.017 263.299 77.5341C263.987 78.0511 264.788 78.3097 265.702 78.3097ZM262.583 63.8636L261.697 63.7955C261.748 63.1477 261.995 62.6222 262.438 62.2188C262.887 61.8097 263.427 61.6051 264.058 61.6051C264.427 61.6051 264.748 61.6705 265.021 61.8011C265.293 61.9318 265.546 62.0824 265.779 62.2528C266.012 62.4176 266.248 62.5682 266.487 62.7045C266.731 62.8352 267.009 62.9006 267.322 62.9006C267.685 62.9006 268.015 62.7784 268.31 62.5341C268.606 62.2841 268.782 61.9659 268.839 61.5795L269.717 61.7159C269.631 62.358 269.362 62.8722 268.907 63.2585C268.458 63.6449 267.941 63.8381 267.356 63.8381C266.981 63.8381 266.663 63.7727 266.401 63.642C266.146 63.5114 265.907 63.3636 265.685 63.1989C265.464 63.0284 265.231 62.8778 264.987 62.7472C264.742 62.6108 264.444 62.5426 264.092 62.5426C263.688 62.5426 263.344 62.6705 263.06 62.9261C262.776 63.1761 262.617 63.4886 262.583 63.8636ZM279.98 79.2727C278.798 79.2727 277.77 78.9801 276.895 78.3949C276.02 77.8097 275.344 77.0085 274.866 75.9915C274.389 74.9744 274.151 73.8153 274.151 72.5142C274.151 71.2074 274.389 70.0426 274.866 69.0199C275.349 67.9972 276.011 67.1903 276.852 66.5994C277.693 66.0085 278.653 65.7131 279.733 65.7131C280.466 65.7131 281.159 65.8608 281.812 66.1562C282.472 66.446 283.051 66.8665 283.551 67.4176C284.057 67.9687 284.452 68.6335 284.736 69.4119C285.026 70.1903 285.17 71.0653 285.17 72.0369V72.6847H274.807V71.7386H284.131C284.131 70.7898 283.938 69.9347 283.551 69.1733C283.165 68.4119 282.639 67.8068 281.974 67.358C281.31 66.9091 280.563 66.6847 279.733 66.6847C278.864 66.6847 278.088 66.929 277.406 67.4176C276.73 67.9006 276.193 68.554 275.795 69.3778C275.403 70.2017 275.199 71.1222 275.182 72.1392V72.5653C275.182 73.6562 275.372 74.6364 275.753 75.5057C276.139 76.3693 276.69 77.054 277.406 77.5597C278.122 78.0597 278.98 78.3097 279.98 78.3097C280.696 78.3097 281.307 78.1903 281.812 77.9517C282.324 77.7074 282.741 77.4119 283.065 77.0653C283.389 76.7187 283.634 76.3835 283.798 76.0597L284.744 76.4432C284.545 76.8807 284.236 77.3182 283.815 77.7557C283.401 78.1875 282.872 78.5483 282.23 78.8381C281.594 79.1278 280.844 79.2727 279.98 79.2727ZM297.068 68.7301L296.105 68.9858C295.952 68.5085 295.733 68.0966 295.449 67.75C295.165 67.4034 294.807 67.1364 294.375 66.9489C293.949 66.7557 293.438 66.6591 292.841 66.6591C291.881 66.6591 291.094 66.8977 290.48 67.375C289.872 67.8523 289.568 68.4744 289.568 69.2415C289.568 69.8665 289.776 70.3835 290.19 70.7926C290.605 71.196 291.239 71.5028 292.091 71.7131L294.102 72.2159C295.136 72.4716 295.915 72.8864 296.438 73.4602C296.96 74.0284 297.222 74.7358 297.222 75.5824C297.222 76.304 297.026 76.9432 296.634 77.5C296.241 78.0568 295.699 78.4915 295.006 78.804C294.318 79.1165 293.517 79.2727 292.602 79.2727C291.381 79.2727 290.378 78.9886 289.594 78.4205C288.81 77.8466 288.307 77.0256 288.085 75.9574L289.082 75.7017C289.27 76.554 289.659 77.2045 290.25 77.6534C290.847 78.0966 291.628 78.3182 292.594 78.3182C293.662 78.3182 294.523 78.0653 295.176 77.5597C295.835 77.054 296.165 76.4062 296.165 75.6165C296.165 75.0142 295.972 74.5057 295.585 74.0909C295.199 73.6761 294.614 73.3722 293.83 73.179L291.741 72.6676C290.673 72.4062 289.872 71.9886 289.338 71.4148C288.804 70.8352 288.537 70.1222 288.537 69.2756C288.537 68.571 288.722 67.9517 289.091 67.4176C289.46 66.8835 289.969 66.4659 290.616 66.1648C291.264 65.8636 292.006 65.7131 292.841 65.7131C293.949 65.7131 294.852 65.9744 295.551 66.4972C296.25 67.0199 296.756 67.7642 297.068 68.7301ZM312.675 79.2727C311.494 79.2727 310.465 78.9801 309.59 78.3949C308.715 77.8097 308.039 77.0085 307.562 75.9915C307.085 74.9744 306.846 73.8153 306.846 72.5142C306.846 71.2074 307.085 70.0426 307.562 69.0199C308.045 67.9972 308.707 67.1903 309.548 66.5994C310.388 66.0085 311.349 65.7131 312.428 65.7131C313.161 65.7131 313.854 65.8608 314.508 66.1562C315.167 66.446 315.746 66.8665 316.246 67.4176C316.752 67.9687 317.147 68.6335 317.431 69.4119C317.721 70.1903 317.866 71.0653 317.866 72.0369V72.6847H307.502V71.7386H316.826C316.826 70.7898 316.633 69.9347 316.246 69.1733C315.86 68.4119 315.335 67.8068 314.67 67.358C314.005 66.9091 313.258 66.6847 312.428 66.6847C311.559 66.6847 310.783 66.929 310.102 67.4176C309.425 67.9006 308.888 68.554 308.491 69.3778C308.099 70.2017 307.894 71.1222 307.877 72.1392V72.5653C307.877 73.6562 308.067 74.6364 308.448 75.5057C308.835 76.3693 309.386 77.054 310.102 77.5597C310.817 78.0597 311.675 78.3097 312.675 78.3097C313.391 78.3097 314.002 78.1903 314.508 77.9517C315.019 77.7074 315.437 77.4119 315.761 77.0653C316.085 76.7187 316.329 76.3835 316.494 76.0597L317.44 76.4432C317.241 76.8807 316.931 77.3182 316.511 77.7557C316.096 78.1875 315.567 78.5483 314.925 78.8381C314.289 79.1278 313.539 79.2727 312.675 79.2727ZM333.104 79.2727C331.991 79.2727 331.011 78.9801 330.164 78.3949C329.317 77.804 328.656 76.9972 328.178 75.9744C327.707 74.9517 327.471 73.7926 327.471 72.4972C327.471 71.2017 327.71 70.0426 328.187 69.0199C328.664 67.9972 329.326 67.1903 330.173 66.5994C331.019 66.0085 331.994 65.7131 333.096 65.7131C333.925 65.7131 334.681 65.8835 335.363 66.2244C336.05 66.5653 336.619 67.0398 337.067 67.6477C337.522 68.2557 337.812 68.9602 337.937 69.7614H336.88C336.71 68.875 336.283 68.142 335.602 67.5625C334.925 66.9773 334.093 66.6847 333.104 66.6847C332.218 66.6847 331.428 66.9347 330.735 67.4347C330.042 67.929 329.496 68.6136 329.099 69.4886C328.701 70.358 328.502 71.3551 328.502 72.4801C328.502 73.5881 328.695 74.5824 329.082 75.4631C329.468 76.3381 330.008 77.0312 330.701 77.5426C331.394 78.054 332.195 78.3097 333.104 78.3097C333.746 78.3097 334.332 78.1818 334.86 77.9261C335.394 77.6705 335.84 77.3068 336.198 76.8352C336.556 76.3636 336.792 75.8125 336.906 75.1818H337.962C337.837 75.9886 337.553 76.6989 337.11 77.3125C336.667 77.9261 336.102 78.4063 335.414 78.7528C334.727 79.0994 333.957 79.2727 333.104 79.2727ZM346.374 79.2727C345.295 79.2727 344.335 78.983 343.494 78.4034C342.653 77.8182 341.991 77.0142 341.508 75.9915C341.025 74.9687 340.783 73.804 340.783 72.4972C340.783 71.1847 341.025 70.0199 341.508 69.0028C341.991 67.9801 342.653 67.1761 343.494 66.5909C344.335 66.0057 345.295 65.7131 346.374 65.7131C347.454 65.7131 348.414 66.0057 349.255 66.5909C350.096 67.1761 350.758 67.9801 351.241 69.0028C351.724 70.0256 351.965 71.1903 351.965 72.4972C351.965 73.804 351.724 74.9687 351.241 75.9915C350.758 77.0142 350.096 77.8182 349.255 78.4034C348.414 78.983 347.454 79.2727 346.374 79.2727ZM346.374 78.3097C347.289 78.3097 348.087 78.0511 348.769 77.5341C349.457 77.017 349.988 76.3182 350.363 75.4375C350.744 74.5568 350.934 73.5767 350.934 72.4972C350.934 71.4176 350.744 70.4403 350.363 69.5653C349.982 68.6847 349.451 67.9858 348.769 67.4688C348.087 66.946 347.289 66.6847 346.374 66.6847C345.46 66.6847 344.661 66.946 343.979 67.4688C343.298 67.9858 342.766 68.6847 342.386 69.5653C342.005 70.4403 341.815 71.4176 341.815 72.4972C341.815 73.5767 342.002 74.5568 342.377 75.4375C342.758 76.3182 343.289 77.017 343.971 77.5341C344.658 78.0511 345.46 78.3097 346.374 78.3097ZM356.587 70.5114V79H355.547V65.9091H356.561V67.9801H356.663C356.97 67.304 357.462 66.7614 358.138 66.3523C358.814 65.9432 359.618 65.7386 360.55 65.7386C361.43 65.7386 362.203 65.9261 362.868 66.3011C363.538 66.6761 364.061 67.2102 364.436 67.9034C364.817 68.5909 365.007 69.4119 365.007 70.3665V79H363.967V70.4091C363.967 69.2955 363.635 68.4006 362.97 67.7244C362.311 67.0426 361.439 66.7017 360.354 66.7017C359.626 66.7017 358.979 66.8608 358.411 67.179C357.842 67.4972 357.396 67.9432 357.072 68.517C356.749 69.0852 356.587 69.75 356.587 70.5114ZM374.271 65.9091V66.8381H368.467V65.9091H374.271ZM370.376 79V63.8722C370.376 63.2131 370.527 62.6506 370.828 62.1847C371.129 61.7187 371.524 61.3636 372.013 61.1193C372.507 60.875 373.038 60.7528 373.607 60.7528C373.908 60.7528 374.163 60.7784 374.374 60.8295C374.589 60.875 374.777 60.929 374.936 60.9915L374.629 61.9119C374.499 61.8665 374.357 61.8267 374.203 61.7926C374.055 61.7585 373.879 61.7415 373.675 61.7415C373.016 61.7415 372.473 61.9432 372.047 62.3466C371.621 62.75 371.408 63.3125 371.408 64.0341L371.399 79H370.376ZM377.559 79V65.9091H378.59V79H377.559ZM378.079 63.5909C377.852 63.5909 377.653 63.5114 377.482 63.3523C377.317 63.1932 377.235 63 377.235 62.7727C377.235 62.5455 377.317 62.3523 377.482 62.1932C377.647 62.0341 377.846 61.9545 378.079 61.9545C378.306 61.9545 378.502 62.0341 378.667 62.1932C378.837 62.3523 378.923 62.5455 378.923 62.7727C378.923 63 378.84 63.1932 378.675 63.3523C378.511 63.5114 378.312 63.5909 378.079 63.5909ZM386.414 79.2812C385.658 79.2812 384.965 79.1307 384.335 78.8295C383.71 78.5284 383.207 78.0881 382.826 77.5085C382.451 76.929 382.263 76.2244 382.263 75.3949C382.263 74.8494 382.36 74.3693 382.553 73.9545C382.746 73.5398 383.045 73.1818 383.448 72.8807C383.852 72.5795 384.369 72.3324 384.999 72.1392C385.63 71.9403 386.383 71.7869 387.258 71.679C387.923 71.5994 388.516 71.5227 389.039 71.4489C389.562 71.3693 389.971 71.2472 390.266 71.0824C390.567 70.9176 390.718 70.6676 390.718 70.3324V69.7869C390.718 68.8324 390.417 68.0739 389.815 67.5114C389.212 66.9489 388.383 66.6676 387.326 66.6676C386.388 66.6676 385.599 66.875 384.957 67.2898C384.32 67.6989 383.874 68.2273 383.619 68.875L382.638 68.5085C382.888 67.8835 383.249 67.3636 383.721 66.9489C384.198 66.5341 384.744 66.2244 385.357 66.0199C385.977 65.8153 386.624 65.7131 387.3 65.7131C387.886 65.7131 388.442 65.7955 388.971 65.9602C389.505 66.125 389.979 66.375 390.394 66.7102C390.815 67.0455 391.147 67.4744 391.391 67.9972C391.636 68.5142 391.758 69.1335 391.758 69.8551V79H390.718V76.6392H390.641C390.414 77.1278 390.102 77.5739 389.704 77.9773C389.312 78.375 388.837 78.6932 388.281 78.9318C387.729 79.1648 387.107 79.2812 386.414 79.2812ZM386.516 78.3182C387.335 78.3182 388.059 78.1193 388.69 77.7216C389.326 77.3182 389.823 76.767 390.181 76.0682C390.539 75.3693 390.718 74.5767 390.718 73.6903V71.7642C390.587 71.8778 390.397 71.9801 390.147 72.071C389.903 72.1562 389.624 72.233 389.312 72.3011C389.005 72.3636 388.681 72.4205 388.34 72.4716C388.005 72.517 387.678 72.5597 387.36 72.5994C386.406 72.7131 385.627 72.8892 385.025 73.1278C384.428 73.3608 383.991 73.6676 383.712 74.0483C383.44 74.429 383.303 74.8892 383.303 75.429C383.303 76.321 383.61 77.0256 384.224 77.5426C384.837 78.0597 385.602 78.3182 386.516 78.3182ZM397.157 70.5114V79H396.117V65.9091H397.131V67.9801H397.234C397.54 67.304 398.032 66.7614 398.708 66.3523C399.384 65.9432 400.188 65.7386 401.12 65.7386C402.001 65.7386 402.773 65.9261 403.438 66.3011C404.109 66.6761 404.631 67.2102 405.006 67.9034C405.387 68.5909 405.577 69.4119 405.577 70.3665V79H404.538V70.4091C404.538 69.2955 404.205 68.4006 403.54 67.7244C402.881 67.0426 402.009 66.7017 400.924 66.7017C400.197 66.7017 399.549 66.8608 398.981 67.179C398.413 67.4972 397.967 67.9432 397.643 68.517C397.319 69.0852 397.157 69.75 397.157 70.5114ZM414.808 79.2727C413.694 79.2727 412.714 78.9801 411.867 78.3949C411.021 77.804 410.359 76.9972 409.881 75.9744C409.41 74.9517 409.174 73.7926 409.174 72.4972C409.174 71.2017 409.413 70.0426 409.89 69.0199C410.367 67.9972 411.029 67.1903 411.876 66.5994C412.722 66.0085 413.697 65.7131 414.799 65.7131C415.629 65.7131 416.384 65.8835 417.066 66.2244C417.754 66.5653 418.322 67.0398 418.771 67.6477C419.225 68.2557 419.515 68.9602 419.64 69.7614H418.583C418.413 68.875 417.987 68.142 417.305 67.5625C416.629 66.9773 415.796 66.6847 414.808 66.6847C413.921 66.6847 413.131 66.9347 412.438 67.4347C411.745 67.929 411.2 68.6136 410.802 69.4886C410.404 70.358 410.205 71.3551 410.205 72.4801C410.205 73.5881 410.398 74.5824 410.785 75.4631C411.171 76.3381 411.711 77.0312 412.404 77.5426C413.097 78.054 413.898 78.3097 414.808 78.3097C415.45 78.3097 416.035 78.1818 416.563 77.9261C417.097 77.6705 417.543 77.3068 417.901 76.8352C418.259 76.3636 418.495 75.8125 418.609 75.1818H419.665C419.54 75.9886 419.256 76.6989 418.813 77.3125C418.37 77.9261 417.805 78.4063 417.117 78.7528C416.43 79.0994 415.66 79.2727 414.808 79.2727ZM414.219 78.9318H415.14L415.012 79.6136C415.546 79.6989 415.975 79.9063 416.299 80.2358C416.623 80.571 416.785 81.0256 416.785 81.5994C416.785 82.2472 416.552 82.7443 416.086 83.0909C415.626 83.4375 414.95 83.6193 414.058 83.6364L414.023 82.8267C414.626 82.8153 415.075 82.7131 415.37 82.5199C415.665 82.3324 415.816 82.0341 415.822 81.625C415.816 81.1705 415.66 80.8352 415.353 80.6193C415.046 80.4034 414.577 80.2926 413.947 80.2869L414.219 78.9318ZM426.68 79.2812C425.924 79.2812 425.231 79.1307 424.6 78.8295C423.975 78.5284 423.472 78.0881 423.092 77.5085C422.717 76.929 422.529 76.2244 422.529 75.3949C422.529 74.8494 422.626 74.3693 422.819 73.9545C423.012 73.5398 423.31 73.1818 423.714 72.8807C424.117 72.5795 424.634 72.3324 425.265 72.1392C425.896 71.9403 426.648 71.7869 427.523 71.679C428.188 71.5994 428.782 71.5227 429.305 71.4489C429.827 71.3693 430.237 71.2472 430.532 71.0824C430.833 70.9176 430.984 70.6676 430.984 70.3324V69.7869C430.984 68.8324 430.683 68.0739 430.08 67.5114C429.478 66.9489 428.648 66.6676 427.592 66.6676C426.654 66.6676 425.864 66.875 425.222 67.2898C424.586 67.6989 424.14 68.2273 423.884 68.875L422.904 68.5085C423.154 67.8835 423.515 67.3636 423.987 66.9489C424.464 66.5341 425.009 66.2244 425.623 66.0199C426.242 65.8153 426.89 65.7131 427.566 65.7131C428.151 65.7131 428.708 65.7955 429.237 65.9602C429.771 66.125 430.245 66.375 430.66 66.7102C431.08 67.0455 431.413 67.4744 431.657 67.9972C431.901 68.5142 432.023 69.1335 432.023 69.8551V79H430.984V76.6392H430.907C430.68 77.1278 430.367 77.5739 429.969 77.9773C429.577 78.375 429.103 78.6932 428.546 78.9318C427.995 79.1648 427.373 79.2812 426.68 79.2812ZM426.782 78.3182C427.6 78.3182 428.325 78.1193 428.955 77.7216C429.592 77.3182 430.089 76.767 430.447 76.0682C430.805 75.3693 430.984 74.5767 430.984 73.6903V71.7642C430.853 71.8778 430.663 71.9801 430.413 72.071C430.168 72.1562 429.89 72.233 429.577 72.3011C429.271 72.3636 428.947 72.4205 428.606 72.4716C428.271 72.517 427.944 72.5597 427.626 72.5994C426.671 72.7131 425.893 72.8892 425.29 73.1278C424.694 73.3608 424.256 73.6676 423.978 74.0483C423.705 74.429 423.569 74.8892 423.569 75.429C423.569 76.321 423.876 77.0256 424.489 77.5426C425.103 78.0597 425.867 78.3182 426.782 78.3182ZM451.451 68.7301L450.488 68.9858C450.335 68.5085 450.116 68.0966 449.832 67.75C449.548 67.4034 449.19 67.1364 448.758 66.9489C448.332 66.7557 447.82 66.6591 447.224 66.6591C446.263 66.6591 445.477 66.8977 444.863 67.375C444.255 67.8523 443.951 68.4744 443.951 69.2415C443.951 69.8665 444.158 70.3835 444.573 70.7926C444.988 71.196 445.621 71.5028 446.474 71.7131L448.485 72.2159C449.519 72.4716 450.298 72.8864 450.82 73.4602C451.343 74.0284 451.604 74.7358 451.604 75.5824C451.604 76.304 451.408 76.9432 451.016 77.5C450.624 78.0568 450.082 78.4915 449.388 78.804C448.701 79.1165 447.9 79.2727 446.985 79.2727C445.763 79.2727 444.761 78.9886 443.977 78.4205C443.192 77.8466 442.69 77.0256 442.468 75.9574L443.465 75.7017C443.653 76.554 444.042 77.2045 444.633 77.6534C445.229 78.0966 446.011 78.3182 446.977 78.3182C448.045 78.3182 448.906 78.0653 449.559 77.5597C450.218 77.054 450.548 76.4062 450.548 75.6165C450.548 75.0142 450.354 74.5057 449.968 74.0909C449.582 73.6761 448.996 73.3722 448.212 73.179L446.124 72.6676C445.056 72.4062 444.255 71.9886 443.721 71.4148C443.187 70.8352 442.92 70.1222 442.92 69.2756C442.92 68.571 443.104 67.9517 443.474 67.4176C443.843 66.8835 444.352 66.4659 444.999 66.1648C445.647 65.8636 446.388 65.7131 447.224 65.7131C448.332 65.7131 449.235 65.9744 449.934 66.4972C450.633 67.0199 451.138 67.7642 451.451 68.7301ZM460.308 79.2727C459.126 79.2727 458.098 78.9801 457.223 78.3949C456.348 77.8097 455.672 77.0085 455.195 75.9915C454.717 74.9744 454.479 73.8153 454.479 72.5142C454.479 71.2074 454.717 70.0426 455.195 69.0199C455.678 67.9972 456.339 67.1903 457.18 66.5994C458.021 66.0085 458.982 65.7131 460.061 65.7131C460.794 65.7131 461.487 65.8608 462.141 66.1562C462.8 66.446 463.379 66.8665 463.879 67.4176C464.385 67.9687 464.78 68.6335 465.064 69.4119C465.354 70.1903 465.499 71.0653 465.499 72.0369V72.6847H455.135V71.7386H464.459C464.459 70.7898 464.266 69.9347 463.879 69.1733C463.493 68.4119 462.967 67.8068 462.303 67.358C461.638 66.9091 460.891 66.6847 460.061 66.6847C459.192 66.6847 458.416 66.929 457.734 67.4176C457.058 67.9006 456.521 68.554 456.124 69.3778C455.732 70.2017 455.527 71.1222 455.51 72.1392V72.5653C455.51 73.6562 455.7 74.6364 456.081 75.5057C456.467 76.3693 457.018 77.054 457.734 77.5597C458.45 78.0597 459.308 78.3097 460.308 78.3097C461.024 78.3097 461.635 78.1903 462.141 77.9517C462.652 77.7074 463.07 77.4119 463.393 77.0653C463.717 76.7187 463.962 76.3835 464.126 76.0597L465.072 76.4432C464.874 76.8807 464.564 77.3182 464.143 77.7557C463.729 78.1875 463.2 78.5483 462.558 78.8381C461.922 79.1278 461.172 79.2727 460.308 79.2727ZM480.933 79.2727C479.751 79.2727 478.723 78.9801 477.848 78.3949C476.973 77.8097 476.297 77.0085 475.82 75.9915C475.342 74.9744 475.104 73.8153 475.104 72.5142C475.104 71.2074 475.342 70.0426 475.82 69.0199C476.303 67.9972 476.964 67.1903 477.805 66.5994C478.646 66.0085 479.607 65.7131 480.686 65.7131C481.419 65.7131 482.112 65.8608 482.766 66.1562C483.425 66.446 484.004 66.8665 484.504 67.4176C485.01 67.9687 485.405 68.6335 485.689 69.4119C485.979 70.1903 486.124 71.0653 486.124 72.0369V72.6847H475.76V71.7386H485.084C485.084 70.7898 484.891 69.9347 484.504 69.1733C484.118 68.4119 483.592 67.8068 482.928 67.358C482.263 66.9091 481.516 66.6847 480.686 66.6847C479.817 66.6847 479.041 66.929 478.359 67.4176C477.683 67.9006 477.146 68.554 476.749 69.3778C476.357 70.2017 476.152 71.1222 476.135 72.1392V72.5653C476.135 73.6562 476.325 74.6364 476.706 75.5057C477.092 76.3693 477.643 77.054 478.359 77.5597C479.075 78.0597 479.933 78.3097 480.933 78.3097C481.649 78.3097 482.26 78.1903 482.766 77.9517C483.277 77.7074 483.695 77.4119 484.018 77.0653C484.342 76.7187 484.587 76.3835 484.751 76.0597L485.697 76.4432C485.499 76.8807 485.189 77.3182 484.768 77.7557C484.354 78.1875 483.825 78.5483 483.183 78.8381C482.547 79.1278 481.797 79.2727 480.933 79.2727ZM490.743 70.5114V79H489.703V65.9091H490.717V67.9801H490.82C491.126 67.304 491.618 66.7614 492.294 66.3523C492.97 65.9432 493.774 65.7386 494.706 65.7386C495.587 65.7386 496.359 65.9261 497.024 66.3011C497.695 66.6761 498.217 67.2102 498.592 67.9034C498.973 68.5909 499.163 69.4119 499.163 70.3665V79H498.124V70.4091C498.124 69.2955 497.791 68.4006 497.126 67.7244C496.467 67.0426 495.595 66.7017 494.51 66.7017C493.783 66.7017 493.135 66.8608 492.567 67.179C491.999 67.4972 491.553 67.9432 491.229 68.517C490.905 69.0852 490.743 69.75 490.743 70.5114ZM508.393 79.2727C507.28 79.2727 506.3 78.9801 505.453 78.3949C504.607 77.804 503.945 76.9972 503.467 75.9744C502.996 74.9517 502.76 73.7926 502.76 72.4972C502.76 71.2017 502.999 70.0426 503.476 69.0199C503.953 67.9972 504.615 67.1903 505.462 66.5994C506.308 66.0085 507.283 65.7131 508.385 65.7131C509.214 65.7131 509.97 65.8835 510.652 66.2244C511.339 66.5653 511.908 67.0398 512.357 67.6477C512.811 68.2557 513.101 68.9602 513.226 69.7614H512.169C511.999 68.875 511.572 68.142 510.891 67.5625C510.214 66.9773 509.382 66.6847 508.393 66.6847C507.507 66.6847 506.717 66.9347 506.024 67.4347C505.331 67.929 504.786 68.6136 504.388 69.4886C503.99 70.358 503.791 71.3551 503.791 72.4801C503.791 73.5881 503.984 74.5824 504.371 75.4631C504.757 76.3381 505.297 77.0312 505.99 77.5426C506.683 78.054 507.484 78.3097 508.393 78.3097C509.036 78.3097 509.621 78.1818 510.149 77.9261C510.683 77.6705 511.129 77.3068 511.487 76.8352C511.845 76.3636 512.081 75.8125 512.195 75.1818H513.251C513.126 75.9886 512.842 76.6989 512.399 77.3125C511.956 77.9261 511.391 78.4063 510.703 78.7528C510.016 79.0994 509.246 79.2727 508.393 79.2727ZM521.663 79.2727C520.584 79.2727 519.624 78.983 518.783 78.4034C517.942 77.8182 517.28 77.0142 516.797 75.9915C516.314 74.9687 516.072 73.804 516.072 72.4972C516.072 71.1847 516.314 70.0199 516.797 69.0028C517.28 67.9801 517.942 67.1761 518.783 66.5909C519.624 66.0057 520.584 65.7131 521.663 65.7131C522.743 65.7131 523.703 66.0057 524.544 66.5909C525.385 67.1761 526.047 67.9801 526.53 69.0028C527.013 70.0256 527.254 71.1903 527.254 72.4972C527.254 73.804 527.013 74.9687 526.53 75.9915C526.047 77.0142 525.385 77.8182 524.544 78.4034C523.703 78.983 522.743 79.2727 521.663 79.2727ZM521.663 78.3097C522.578 78.3097 523.376 78.0511 524.058 77.5341C524.746 77.017 525.277 76.3182 525.652 75.4375C526.033 74.5568 526.223 73.5767 526.223 72.4972C526.223 71.4176 526.033 70.4403 525.652 69.5653C525.271 68.6847 524.74 67.9858 524.058 67.4688C523.376 66.946 522.578 66.6847 521.663 66.6847C520.749 66.6847 519.95 66.946 519.268 67.4688C518.587 67.9858 518.055 68.6847 517.675 69.5653C517.294 70.4403 517.104 71.4176 517.104 72.4972C517.104 73.5767 517.291 74.5568 517.666 75.4375C518.047 76.3182 518.578 77.017 519.26 77.5341C519.947 78.0511 520.749 78.3097 521.663 78.3097ZM531.876 70.5114V79H530.836V65.9091H531.85V67.9801H531.952C532.259 67.304 532.751 66.7614 533.427 66.3523C534.103 65.9432 534.907 65.7386 535.839 65.7386C536.719 65.7386 537.492 65.9261 538.157 66.3011C538.827 66.6761 539.35 67.2102 539.725 67.9034C540.106 68.5909 540.296 69.4119 540.296 70.3665V79H539.256V70.4091C539.256 69.2955 538.924 68.4006 538.259 67.7244C537.6 67.0426 536.728 66.7017 535.643 66.7017C534.915 66.7017 534.268 66.8608 533.7 67.179C533.131 67.4972 532.685 67.9432 532.362 68.517C532.038 69.0852 531.876 69.75 531.876 70.5114ZM549.245 65.9091V66.8381H543.526V65.9091H549.245ZM545.461 62.7727H546.492V75.9062C546.492 76.4403 546.594 76.8778 546.799 77.2188C547.009 77.554 547.282 77.804 547.617 77.9688C547.958 78.1278 548.322 78.2074 548.708 78.2074C548.896 78.2074 549.058 78.1932 549.194 78.1648C549.336 78.1364 549.469 78.0994 549.594 78.054L549.85 79C549.691 79.0568 549.515 79.1051 549.322 79.1449C549.129 79.1903 548.901 79.2131 548.64 79.2131C548.094 79.2131 547.577 79.0909 547.089 78.8466C546.606 78.6023 546.214 78.2472 545.913 77.7812C545.612 77.3153 545.461 76.7528 545.461 76.0938V62.7727ZM553.102 79V65.9091H554.116V67.9545H554.21C554.494 67.2841 554.974 66.7472 555.65 66.3438C556.326 65.9347 557.096 65.7301 557.96 65.7301C558.05 65.7301 558.141 65.7301 558.232 65.7301C558.323 65.7301 558.408 65.733 558.488 65.7386V66.7869C558.42 66.7812 558.337 66.7727 558.241 66.7614C558.15 66.7443 558.036 66.7358 557.9 66.7358C557.173 66.7358 556.525 66.892 555.957 67.2045C555.394 67.517 554.951 67.9489 554.627 68.5C554.303 69.0455 554.141 69.6705 554.141 70.375V79H553.102ZM564.75 79.2812C563.994 79.2812 563.301 79.1307 562.67 78.8295C562.045 78.5284 561.543 78.0881 561.162 77.5085C560.787 76.929 560.599 76.2244 560.599 75.3949C560.599 74.8494 560.696 74.3693 560.889 73.9545C561.082 73.5398 561.381 73.1818 561.784 72.8807C562.188 72.5795 562.705 72.3324 563.335 72.1392C563.966 71.9403 564.719 71.7869 565.594 71.679C566.259 71.5994 566.852 71.5227 567.375 71.4489C567.898 71.3693 568.307 71.2472 568.602 71.0824C568.903 70.9176 569.054 70.6676 569.054 70.3324V69.7869C569.054 68.8324 568.753 68.0739 568.151 67.5114C567.548 66.9489 566.719 66.6676 565.662 66.6676C564.724 66.6676 563.935 66.875 563.293 67.2898C562.656 67.6989 562.21 68.2273 561.955 68.875L560.974 68.5085C561.224 67.8835 561.585 67.3636 562.057 66.9489C562.534 66.5341 563.08 66.2244 563.693 66.0199C564.313 65.8153 564.96 65.7131 565.636 65.7131C566.222 65.7131 566.778 65.7955 567.307 65.9602C567.841 66.125 568.315 66.375 568.73 66.7102C569.151 67.0455 569.483 67.4744 569.727 67.9972C569.972 68.5142 570.094 69.1335 570.094 69.8551V79H569.054V76.6392H568.977C568.75 77.1278 568.438 77.5739 568.04 77.9773C567.648 78.375 567.173 78.6932 566.616 78.9318C566.065 79.1648 565.443 79.2812 564.75 79.2812ZM564.852 78.3182C565.67 78.3182 566.395 78.1193 567.026 77.7216C567.662 77.3182 568.159 76.767 568.517 76.0682C568.875 75.3693 569.054 74.5767 569.054 73.6903V71.7642C568.923 71.8778 568.733 71.9801 568.483 72.071C568.239 72.1562 567.96 72.233 567.648 72.3011C567.341 72.3636 567.017 72.4205 566.676 72.4716C566.341 72.517 566.014 72.5597 565.696 72.5994C564.741 72.7131 563.963 72.8892 563.361 73.1278C562.764 73.3608 562.327 73.6676 562.048 74.0483C561.776 74.429 561.639 74.8892 561.639 75.429C561.639 76.321 561.946 77.0256 562.56 77.5426C563.173 78.0597 563.938 78.3182 564.852 78.3182ZM574.453 79V65.9091H575.467V67.8864H575.57C575.82 67.2273 576.251 66.7045 576.865 66.3182C577.479 65.9318 578.217 65.7386 579.081 65.7386C580.03 65.7386 580.794 65.9659 581.374 66.4205C581.959 66.875 582.379 67.4915 582.635 68.2699H582.729C582.984 67.5028 583.442 66.8892 584.101 66.429C584.766 65.9688 585.584 65.7386 586.555 65.7386C587.822 65.7386 588.788 66.1392 589.453 66.9403C590.124 67.7358 590.459 68.8267 590.459 70.2131V79H589.419V70.2131C589.419 69.1222 589.158 68.2642 588.635 67.6392C588.112 67.0142 587.345 66.7017 586.334 66.7017C585.254 66.7017 584.425 67.0398 583.845 67.7159C583.266 68.392 582.976 69.2528 582.976 70.2983V79H581.936V70.1449C581.936 69.1278 581.68 68.3011 581.169 67.6648C580.658 67.0227 579.891 66.7017 578.868 66.7017C578.175 66.7017 577.575 66.8608 577.07 67.179C576.57 67.4972 576.18 67.9347 575.902 68.4915C575.629 69.0483 575.493 69.6875 575.493 70.4091V79H574.453ZM595.745 79.1108C595.489 79.1108 595.271 79.0227 595.089 78.8466C594.913 78.6648 594.825 78.446 594.825 78.1903C594.825 77.9403 594.913 77.7244 595.089 77.5426C595.271 77.3608 595.489 77.2699 595.745 77.2699C595.995 77.2699 596.211 77.3608 596.393 77.5426C596.575 77.7244 596.665 77.9403 596.665 78.1903C596.665 78.3608 596.623 78.517 596.538 78.6591C596.458 78.7955 596.347 78.9062 596.205 78.9915C596.069 79.071 595.915 79.1108 595.745 79.1108Z" fill="black"/>
<path d="M106.835 10.0909H113.227L124.341 37.2273H124.75L135.864 10.0909H142.256V45H137.244V19.7386H136.92L126.625 44.9489H122.466L112.17 19.7216H111.847V45H106.835V10.0909ZM149.913 45V10.0909H171.8V14.625H155.18V25.2614H170.658V29.7784H155.18V40.4659H172.004V45H149.913ZM184.102 10.0909V45H178.835V10.0909H184.102ZM222.097 27.5455C222.097 31.2727 221.415 34.4773 220.051 37.1591C218.688 39.8295 216.818 41.8864 214.443 43.3295C212.08 44.7614 209.392 45.4773 206.381 45.4773C203.358 45.4773 200.659 44.7614 198.284 43.3295C195.92 41.8864 194.057 39.8239 192.693 37.142C191.33 34.4602 190.648 31.2614 190.648 27.5455C190.648 23.8182 191.33 20.6193 192.693 17.9489C194.057 15.267 195.92 13.2102 198.284 11.7784C200.659 10.3352 203.358 9.61364 206.381 9.61364C209.392 9.61364 212.08 10.3352 214.443 11.7784C216.818 13.2102 218.688 15.267 220.051 17.9489C221.415 20.6193 222.097 23.8182 222.097 27.5455ZM216.881 27.5455C216.881 24.7045 216.42 22.3125 215.5 20.3693C214.591 18.4148 213.341 16.9375 211.75 15.9375C210.17 14.9261 208.381 14.4205 206.381 14.4205C204.369 14.4205 202.574 14.9261 200.994 15.9375C199.415 16.9375 198.165 18.4148 197.244 20.3693C196.335 22.3125 195.881 24.7045 195.881 27.5455C195.881 30.3864 196.335 32.7841 197.244 34.7386C198.165 36.6818 199.415 38.1591 200.994 39.1705C202.574 40.1705 204.369 40.6705 206.381 40.6705C208.381 40.6705 210.17 40.1705 211.75 39.1705C213.341 38.1591 214.591 36.6818 215.5 34.7386C216.42 32.7841 216.881 30.3864 216.881 27.5455ZM252.668 45H241.366V10.0909H253.026C256.446 10.0909 259.384 10.7898 261.838 12.1875C264.293 13.5739 266.173 15.5682 267.48 18.1705C268.798 20.7614 269.457 23.8693 269.457 27.4943C269.457 31.1307 268.793 34.2557 267.463 36.8693C266.145 39.483 264.236 41.4943 261.736 42.9034C259.236 44.3011 256.213 45 252.668 45ZM246.634 40.3977H252.378C255.037 40.3977 257.247 39.8977 259.009 38.8977C260.77 37.8864 262.088 36.4261 262.963 34.517C263.838 32.5966 264.276 30.2557 264.276 27.4943C264.276 24.7557 263.838 22.4318 262.963 20.5227C262.099 18.6136 260.81 17.1648 259.094 16.1761C257.378 15.1875 255.247 14.6932 252.702 14.6932H246.634V40.3977ZM276.007 45V10.0909H297.893V14.625H281.274V25.2614H296.751V29.7784H281.274V40.4659H298.098V45H276.007ZM317.632 45V10.0909H330.075C332.791 10.0909 335.041 10.5852 336.825 11.5739C338.609 12.5625 339.945 13.9148 340.831 15.6307C341.717 17.3352 342.161 19.2557 342.161 21.392C342.161 23.5398 341.712 25.4716 340.814 27.1875C339.928 28.892 338.587 30.2443 336.791 31.2443C335.007 32.233 332.763 32.7273 330.058 32.7273H321.501V28.2614H329.581C331.297 28.2614 332.689 27.9659 333.757 27.375C334.825 26.7727 335.609 25.9545 336.109 24.9205C336.609 23.8864 336.859 22.7102 336.859 21.392C336.859 20.0739 336.609 18.9034 336.109 17.8807C335.609 16.858 334.82 16.0568 333.74 15.4773C332.672 14.8977 331.263 14.608 329.513 14.608H322.899V45H317.632ZM347.581 45H341.99L354.553 10.0909H360.638L373.2 45H367.609L357.74 16.4318H357.467L347.581 45ZM348.518 31.3295H366.655V35.7614H348.518V31.3295ZM400.226 21.1193C399.896 20.0852 399.453 19.1591 398.896 18.3409C398.351 17.5114 397.697 16.8068 396.936 16.2273C396.175 15.6364 395.305 15.1875 394.328 14.8807C393.362 14.5739 392.3 14.4205 391.141 14.4205C389.175 14.4205 387.402 14.9261 385.822 15.9375C384.243 16.9489 382.993 18.4318 382.072 20.3864C381.163 22.3295 380.709 24.7102 380.709 27.5284C380.709 30.358 381.169 32.75 382.089 34.7045C383.01 36.6591 384.271 38.142 385.874 39.1534C387.476 40.1648 389.3 40.6705 391.345 40.6705C393.243 40.6705 394.896 40.2841 396.305 39.5114C397.726 38.7386 398.822 37.6477 399.595 36.2386C400.379 34.8182 400.771 33.1477 400.771 31.2273L402.135 31.483H392.146V27.1364H405.868V31.108C405.868 34.0398 405.243 36.5852 403.993 38.7443C402.754 40.892 401.038 42.5511 398.845 43.7216C396.663 44.892 394.163 45.4773 391.345 45.4773C388.186 45.4773 385.413 44.75 383.027 43.2955C380.652 41.8409 378.8 39.7784 377.47 37.108C376.141 34.4261 375.476 31.2443 375.476 27.5625C375.476 24.7784 375.862 22.2784 376.635 20.0625C377.408 17.8466 378.493 15.9659 379.891 14.4205C381.3 12.8636 382.953 11.6761 384.851 10.858C386.76 10.0284 388.845 9.61364 391.107 9.61364C392.993 9.61364 394.749 9.89204 396.374 10.4489C398.01 11.0057 399.464 11.7955 400.737 12.8182C402.021 13.8409 403.084 15.0568 403.925 16.4659C404.766 17.8636 405.334 19.4148 405.629 21.1193H400.226ZM414.425 45H408.834L421.396 10.0909H427.482L440.044 45H434.453L424.584 16.4318H424.311L414.425 45ZM415.362 31.3295H433.499V35.7614H415.362V31.3295ZM445.085 10.0909H451.477L462.591 37.2273H463L474.114 10.0909H480.506V45H475.494V19.7386H475.17L464.875 44.9489H460.716L450.42 19.7216H450.097V45H445.085V10.0909ZM488.163 45V10.0909H510.05V14.625H493.43V25.2614H508.908V29.7784H493.43V40.4659H510.254V45H488.163ZM545.261 10.0909V45H540.42L522.676 19.3977H522.352V45H517.085V10.0909H521.96L539.722 35.7273H540.045V10.0909H545.261ZM551.223 14.625V10.0909H578.24V14.625H567.348V45H562.098V14.625H551.223ZM613.034 27.5455C613.034 31.2727 612.352 34.4773 610.989 37.1591C609.625 39.8295 607.756 41.8864 605.381 43.3295C603.017 44.7614 600.33 45.4773 597.318 45.4773C594.295 45.4773 591.597 44.7614 589.222 43.3295C586.858 41.8864 584.994 39.8239 583.631 37.142C582.267 34.4602 581.585 31.2614 581.585 27.5455C581.585 23.8182 582.267 20.6193 583.631 17.9489C584.994 15.267 586.858 13.2102 589.222 11.7784C591.597 10.3352 594.295 9.61364 597.318 9.61364C600.33 9.61364 603.017 10.3352 605.381 11.7784C607.756 13.2102 609.625 15.267 610.989 17.9489C612.352 20.6193 613.034 23.8182 613.034 27.5455ZM607.818 27.5455C607.818 24.7045 607.358 22.3125 606.438 20.3693C605.528 18.4148 604.278 16.9375 602.688 15.9375C601.108 14.9261 599.318 14.4205 597.318 14.4205C595.307 14.4205 593.511 14.9261 591.932 15.9375C590.352 16.9375 589.102 18.4148 588.182 20.3693C587.273 22.3125 586.818 24.7045 586.818 27.5455C586.818 30.3864 587.273 32.7841 588.182 34.7386C589.102 36.6818 590.352 38.1591 591.932 39.1705C593.511 40.1705 595.307 40.6705 597.318 40.6705C599.318 40.6705 601.108 40.1705 602.688 39.1705C604.278 38.1591 605.528 36.6818 606.438 34.7386C607.358 32.7841 607.818 30.3864 607.818 27.5455Z" fill="black"/>
<path d="M45.8821 57.7429V30.3143H47.6393V57.7429H45.8821ZM51.3786 38.8214C51.2643 37.8071 50.7929 37.0214 49.9643 36.4643C49.1357 35.9 48.0929 35.6179 46.8357 35.6179C45.9357 35.6179 45.1571 35.7607 44.5 36.0464C43.8429 36.325 43.3321 36.7107 42.9679 37.2036C42.6107 37.6893 42.4321 38.2429 42.4321 38.8643C42.4321 39.3857 42.5536 39.8357 42.7964 40.2143C43.0464 40.5929 43.3714 40.9107 43.7714 41.1679C44.1786 41.4179 44.6143 41.6286 45.0786 41.8C45.5429 41.9643 45.9893 42.1 46.4179 42.2071L48.5607 42.7643C49.2607 42.9357 49.9786 43.1679 50.7143 43.4607C51.45 43.7536 52.1321 44.1393 52.7607 44.6179C53.3893 45.0964 53.8964 45.6893 54.2821 46.3964C54.675 47.1036 54.8714 47.95 54.8714 48.9357C54.8714 50.1786 54.55 51.2821 53.9071 52.2464C53.2714 53.2107 52.3464 53.9714 51.1321 54.5286C49.925 55.0857 48.4643 55.3643 46.75 55.3643C45.1071 55.3643 43.6857 55.1036 42.4857 54.5821C41.2857 54.0607 40.3464 53.3214 39.6679 52.3643C38.9893 51.4 38.6143 50.2571 38.5429 48.9357H41.8643C41.9286 49.7286 42.1857 50.3893 42.6357 50.9179C43.0929 51.4393 43.675 51.8286 44.3821 52.0857C45.0964 52.3357 45.8786 52.4607 46.7286 52.4607C47.6643 52.4607 48.4964 52.3143 49.225 52.0214C49.9607 51.7214 50.5393 51.3071 50.9607 50.7786C51.3821 50.2429 51.5929 49.6179 51.5929 48.9036C51.5929 48.2536 51.4071 47.7214 51.0357 47.3071C50.6714 46.8929 50.175 46.55 49.5464 46.2786C48.925 46.0071 48.2214 45.7679 47.4357 45.5607L44.8429 44.8536C43.0857 44.375 41.6929 43.6714 40.6643 42.7429C39.6429 41.8143 39.1321 40.5857 39.1321 39.0571C39.1321 37.7929 39.475 36.6893 40.1607 35.7464C40.8464 34.8036 41.775 34.0714 42.9464 33.55C44.1179 33.0214 45.4393 32.7571 46.9107 32.7571C48.3964 32.7571 49.7071 33.0179 50.8429 33.5393C51.9857 34.0607 52.8857 34.7786 53.5429 35.6929C54.2 36.6 54.5429 37.6429 54.5714 38.8214H51.3786Z" fill="#F59E0B"/>
<path d="M27.8688 7.70466C27.7474 7.71983 27.3152 7.77291 26.9208 7.81841C22.9623 8.25825 18.9811 9.95691 15.8113 12.5504C11.7238 15.9022 8.95592 20.6949 8.11417 25.8516C7.81084 27.7474 7.80325 28.4906 7.826 46.2583C7.86392 64.8678 7.83359 63.6317 8.27342 65.8082C8.86492 68.7732 10.1996 71.7687 12.012 74.2408C14.0292 77.0012 16.653 79.2307 19.6863 80.7777C22.0599 81.9834 24.3198 82.6735 27.1104 83.0527C28.2252 83.1967 62.9189 83.1967 64.0413 83.0527C68.0983 82.5142 71.435 81.1872 74.6428 78.8287C75.8561 77.9415 78.0553 75.7499 78.9577 74.5442C81.1948 71.5412 82.4915 68.4472 83.1361 64.5721L83.2953 63.5862L83.3257 46.0308C83.3408 33.6245 83.3257 28.1872 83.265 27.4972C82.8252 22.3632 80.6184 17.6616 76.9405 13.9912C73.8162 10.8745 70.0776 8.88766 65.7475 8.04591C63.7531 7.65158 64.2081 7.65916 45.5 7.67433C35.9298 7.67433 27.9977 7.69708 27.8688 7.70466ZM64.155 14.2036C67.1353 14.8027 69.3875 15.8567 71.4881 17.6237C73.9072 19.656 75.7423 22.5301 76.4703 25.4421C76.9633 27.3986 76.9253 25.7227 76.9481 44.9312C76.9784 60.7122 76.9633 62.4639 76.8571 63.3587C76.2959 67.7722 73.8844 71.6928 70.1913 74.1726C68.3334 75.4238 66.5513 76.1442 64.1929 76.6068L63.3588 76.7737L46.1825 76.804C34.2312 76.8192 28.7408 76.804 28.1418 76.7433C21.385 76.0987 15.8037 71.0634 14.4918 64.4204C14.1733 62.8279 14.1733 62.4715 14.196 44.7417L14.2263 27.7171L14.3932 26.845C15.0529 23.4173 16.4558 20.748 18.8218 18.4123C20.0807 17.1687 21.3016 16.3269 23.0154 15.5079C24.6534 14.7192 26.2687 14.2642 28.0583 14.0822C28.2024 14.0671 36.2408 14.0595 45.9171 14.0671C62.1985 14.0747 63.5559 14.0822 64.155 14.2036Z" fill="black"/>
</svg>
